HIERARCHY
ROOT Root
{
  OFFSET 0.0 0.0 0.0
  CHANNELS 6 Xposition Yposition Zposition Zrotation Yrotation Xrotation
  JOINT Hips
  {
    OFFSET 0.0 100.0 0.0
    CHANNELS 6 Xposition Yposition Zposition Zrotation Yrotation Xrotation
    JOINT Spine1
    {
      OFFSET 5.003913 -0.037094 -0.013727
      CHANNELS 3 Zrotation Yrotation Xrotation
      JOINT Spine2
      {
        OFFSET 7.125363 -1e-06 0.0
        CHANNELS 3 Zrotation Yrotation Xrotation
        JOINT Chest
        {
          OFFSET 7.594027 1e-06 0.0
          CHANNELS 3 Zrotation Yrotation Xrotation
          JOINT Neck1
          {
            OFFSET 26.313086 -0.460272 -0.181672
            CHANNELS 3 Zrotation Yrotation Xrotation
            JOINT Neck2
            {
              OFFSET 8.045911 0.0 0.0
              CHANNELS 3 Zrotation Yrotation Xrotation
              JOINT Head
              {
                OFFSET 6.432774 0.0 0.0
                CHANNELS 3 Zrotation Yrotation Xrotation
                JOINT HeadEnd
                {
                  OFFSET 16.169773 0.06451 0.00362
                  CHANNELS 3 Zrotation Yrotation Xrotation
                }
                JOINT Jaw
                {
                  OFFSET 0.108741 3.12938 0.002639
                  CHANNELS 3 Zrotation Yrotation Xrotation
                }
                JOINT LeftEye
                {
                  OFFSET 4.45173 8.166359 3.206392
                  CHANNELS 3 Zrotation Yrotation Xrotation
                }
                JOINT RightEye
                {
                  OFFSET 4.436895 8.135758 -3.222429
                  CHANNELS 3 Zrotation Yrotation Xrotation
                }
              }
            }
          }
          JOINT LeftShoulder
          {
            OFFSET 23.218927 5.195579 1.621656
            CHANNELS 3 Zrotation Yrotation Xrotation
            JOINT LeftArm
            {
              OFFSET 15.902118 2e-06 -2e-06
              CHANNELS 3 Zrotation Yrotation Xrotation
              JOINT LeftForeArm
              {
                OFFSET 28.739307 0.0 -1e-06
                CHANNELS 3 Zrotation Yrotation Xrotation
                JOINT LeftHand
                {
                  OFFSET 27.093981 -4e-06 0.0
                  CHANNELS 3 Zrotation Yrotation Xrotation
                  JOINT LeftHandThumb1
                  {
                    OFFSET 2.276781 3.380274 0.83384
                    CHANNELS 3 Zrotation Yrotation Xrotation
                    JOINT LeftHandThumb2
                    {
                      OFFSET 4.705309 -1e-06 -1e-06
                      CHANNELS 3 Zrotation Yrotation Xrotation
                      JOINT LeftHandThumb3
                      {
                        OFFSET 2.798515 0.0 3e-06
                        CHANNELS 3 Zrotation Yrotation Xrotation
                        JOINT LeftHandThumbEnd
                        {
                          OFFSET 3.180793 4e-06 -4e-06
                          CHANNELS 3 Zrotation Yrotation Xrotation
                        }
                      }
                    }
                  }
                  JOINT LeftHandIndex1
                  {
                    OFFSET 3.247786 2.352677 0.137192
                    CHANNELS 3 Zrotation Yrotation Xrotation
                    JOINT LeftHandIndex2
                    {
                      OFFSET 6.367095 1e-06 0.0
                      CHANNELS 3 Zrotation Yrotation Xrotation
                      JOINT LeftHandIndex3
                      {
                        OFFSET 3.662364 0.0 0.0
                        CHANNELS 3 Zrotation Yrotation Xrotation
                        JOINT LeftHandIndex4
                        {
                          OFFSET 2.329242 4e-06 -4e-06
                          CHANNELS 3 Zrotation Yrotation Xrotation
                          JOINT LeftHandIndexEnd
                          {
                            OFFSET 2.767823 1e-06 0.0
                            CHANNELS 3 Zrotation Yrotation Xrotation
                          }
                        }
                      }
                    }
                  }
                  JOINT LeftHandMiddle1
                  {
                    OFFSET 3.163612 0.945023 -0.406112
                    CHANNELS 3 Zrotation Yrotation Xrotation
                    JOINT LeftHandMiddle2
                    {
                      OFFSET 6.276789 3e-06 0.0
                      CHANNELS 3 Zrotation Yrotation Xrotation
                      JOINT LeftHandMiddle3
                      {
                        OFFSET 4.35652 -1e-06 4e-06
                        CHANNELS 3 Zrotation Yrotation Xrotation
                        JOINT LeftHandMiddle4
                        {
                          OFFSET 2.996877 0.0 8e-06
                          CHANNELS 3 Zrotation Yrotation Xrotation
                          JOINT LeftHandMiddleEnd
                          {
                            OFFSET 2.323256 3e-06 -4e-06
                            CHANNELS 3 Zrotation Yrotation Xrotation
                          }
                        }
                      }
                    }
                  }
                  JOINT LeftHandRing1
                  {
                    OFFSET 2.882606 -0.309162 0.107445
                    CHANNELS 3 Zrotation Yrotation Xrotation
                    JOINT LeftHandRing2
                    {
                      OFFSET 6.033198 0.0 4e-06
                      CHANNELS 3 Zrotation Yrotation Xrotation
                      JOINT LeftHandRing3
                      {
                        OFFSET 4.350578 3e-06 0.0
                        CHANNELS 3 Zrotation Yrotation Xrotation
                        JOINT LeftHandRing4
                        {
                          OFFSET 2.651321 2e-06 -7e-06
                          CHANNELS 3 Zrotation Yrotation Xrotation
                          JOINT LeftHandRingEnd
                          {
                            OFFSET 1.937663 1e-06 -4e-06
                            CHANNELS 3 Zrotation Yrotation Xrotation
                          }
                        }
                      }
                    }
                  }
                  JOINT LeftHandPinky1
                  {
                    OFFSET 2.865315 -1.525436 0.575687
                    CHANNELS 3 Zrotation Yrotation Xrotation
                    JOINT LeftHandPinky2
                    {
                      OFFSET 5.54936 1e-06 -8e-06
                      CHANNELS 3 Zrotation Yrotation Xrotation
                      JOINT LeftHandPinky3
                      {
                        OFFSET 3.070974 0.0 -4e-06
                        CHANNELS 3 Zrotation Yrotation Xrotation
                        JOINT LeftHandPinky4
                        {
                          OFFSET 1.549672 1e-06 0.0
                          CHANNELS 3 Zrotation Yrotation Xrotation
                          JOINT LeftHandPinkyEnd
                          {
                            OFFSET 1.952123 0.0 0.0
                            CHANNELS 3 Zrotation Yrotation Xrotation
                          }
                        }
                      }
                    }
                  }
                }
              }
            }
          }
          JOINT RightShoulder
          {
            OFFSET 23.161716 5.296122 -1.380114
            CHANNELS 3 Zrotation Yrotation Xrotation
            JOINT RightArm
            {
              OFFSET -16.027195 -2e-06 1.1e-05
              CHANNELS 3 Zrotation Yrotation Xrotation
              JOINT RightForeArm
              {
                OFFSET -28.736639 4e-06 2e-06
                CHANNELS 3 Zrotation Yrotation Xrotation
                JOINT RightHand
                {
                  OFFSET -27.133619 6e-06 0.0
                  CHANNELS 3 Zrotation Yrotation Xrotation
                  JOINT RightHandThumb1
                  {
                    OFFSET -2.274328 -3.351035 -0.83067
                    CHANNELS 3 Zrotation Yrotation Xrotation
                    JOINT RightHandThumb2
                    {
                      OFFSET -4.703594 -3e-06 2e-06
                      CHANNELS 3 Zrotation Yrotation Xrotation
                      JOINT RightHandThumb3
                      {
                        OFFSET -2.794935 -4e-06 -3e-06
                        CHANNELS 3 Zrotation Yrotation Xrotation
                        JOINT RightHandThumbEnd
                        {
                          OFFSET -3.183852 4e-06 1e-06
                          CHANNELS 3 Zrotation Yrotation Xrotation
                        }
                      }
                    }
                  }
                  JOINT RightHandIndex1
                  {
                    OFFSET -3.253496 -2.33755 -0.127667
                    CHANNELS 3 Zrotation Yrotation Xrotation
                    JOINT RightHandIndex2
                    {
                      OFFSET -6.344434 0.0 0.0
                      CHANNELS 3 Zrotation Yrotation Xrotation
                      JOINT RightHandIndex3
                      {
                        OFFSET -3.654871 0.0 -8e-06
                        CHANNELS 3 Zrotation Yrotation Xrotation
                        JOINT RightHandIndex4
                        {
                          OFFSET -2.327586 -1e-06 0.0
                          CHANNELS 3 Zrotation Yrotation Xrotation
                          JOINT RightHandIndexEnd
                          {
                            OFFSET -2.770001 3e-06 8e-06
                            CHANNELS 3 Zrotation Yrotation Xrotation
                          }
                        }
                      }
                    }
                  }
                  JOINT RightHandMiddle1
                  {
                    OFFSET -3.168223 -0.944764 0.411762
                    CHANNELS 3 Zrotation Yrotation Xrotation
                    JOINT RightHandMiddle2
                    {
                      OFFSET -6.266691 -1e-06 -4e-06
                      CHANNELS 3 Zrotation Yrotation Xrotation
                      JOINT RightHandMiddle3
                      {
                        OFFSET -4.348901 0.0 0.0
                        CHANNELS 3 Zrotation Yrotation Xrotation
                        JOINT RightHandMiddle4
                        {
                          OFFSET -3.00024 2e-06 -4e-06
                          CHANNELS 3 Zrotation Yrotation Xrotation
                          JOINT RightHandMiddleEnd
                          {
                            OFFSET -2.321477 -4e-06 -4e-06
                            CHANNELS 3 Zrotation Yrotation Xrotation
                          }
                        }
                      }
                    }
                  }
                  JOINT RightHandRing1
                  {
                    OFFSET -2.885654 0.293261 -0.119232
                    CHANNELS 3 Zrotation Yrotation Xrotation
                    JOINT RightHandRing2
                    {
                      OFFSET -6.032835 -1e-06 -4e-06
                      CHANNELS 3 Zrotation Yrotation Xrotation
                      JOINT RightHandRing3
                      {
                        OFFSET -4.33881 0.0 -4e-06
                        CHANNELS 3 Zrotation Yrotation Xrotation
                        JOINT RightHandRing4
                        {
                          OFFSET -2.654903 -4e-06 -4e-06
                          CHANNELS 3 Zrotation Yrotation Xrotation
                          JOINT RightHandRingEnd
                          {
                            OFFSET -1.935122 0.0 4e-06
                            CHANNELS 3 Zrotation Yrotation Xrotation
                          }
                        }
                      }
                    }
                  }
                  JOINT RightHandPinky1
                  {
                    OFFSET -2.866241 1.503904 -0.60527
                    CHANNELS 3 Zrotation Yrotation Xrotation
                    JOINT RightHandPinky2
                    {
                      OFFSET -5.553177 -2e-06 0.0
                      CHANNELS 3 Zrotation Yrotation Xrotation
                      JOINT RightHandPinky3
                      {
                        OFFSET -3.062664 -1e-06 -4e-06
                        CHANNELS 3 Zrotation Yrotation Xrotation
                        JOINT RightHandPinky4
                        {
                          OFFSET -1.546529 2e-06 4e-06
                          CHANNELS 3 Zrotation Yrotation Xrotation
                          JOINT RightHandPinkyEnd
                          {
                            OFFSET -1.952341 0.0 -4e-06
                            CHANNELS 3 Zrotation Yrotation Xrotation
                          }
                        }
                      }
                    }
                  }
                }
              }
            }
          }
        }
      }
    }
    JOINT LeftLeg
    {
      OFFSET -8.443107 2.567604 10.043214
      CHANNELS 3 Zrotation Yrotation Xrotation
      JOINT LeftShin
      {
        OFFSET 43.229198 1e-06 -1e-06
        CHANNELS 3 Zrotation Yrotation Xrotation
        JOINT LeftFoot
        {
          OFFSET 42.298611 1e-06 1e-06
          CHANNELS 3 Zrotation Yrotation Xrotation
          JOINT LeftToeBase
          {
            OFFSET 14.165858 1e-06 0.0
            CHANNELS 3 Zrotation Yrotation Xrotation
            JOINT LeftToeEnd
            {
              OFFSET 6.7141 -0.234461 0.0
              CHANNELS 3 Zrotation Yrotation Xrotation
            }
          }
        }
      }
    }
    JOINT RightLeg
    {
      OFFSET -8.303923 2.592729 -10.047278
      CHANNELS 3 Zrotation Yrotation Xrotation
      JOINT RightShin
      {
        OFFSET -43.369682 0.0 1e-06
        CHANNELS 3 Zrotation Yrotation Xrotation
        JOINT RightFoot
        {
          OFFSET -42.260784 4e-06 2e-06
          CHANNELS 3 Zrotation Yrotation Xrotation
          JOINT RightToeBase
          {
            OFFSET -14.222245 -2e-06 -1e-06
            CHANNELS 3 Zrotation Yrotation Xrotation
            JOINT RightToeEnd
            {
              OFFSET -6.660062 0.232574 -2e-06
              CHANNELS 3 Zrotation Yrotation Xrotation
            }
          }
        }
      }
    }
  }
}
MOTION
Frames: 4
Frame Time: 0.03333333333333333
0.0 0.0 0.0 0.0 -0.0 0.0 -1.020464 97.357254 5.835606 91.072914 6.752376 89.759361 0.706071 0.260972 -0.199323 -10.403259 -0.669884 0.326763 16.374905 -0.013033 -1.62377 19.646769 6.185483 2.540166 -2.50396 -0.531562 0.730789 -33.341534 0.859665 -0.380412 6e-06 0.0 -0.0 0.082804 0.011551 0.075605 -0.027715 0.040323 0.063782 -0.061533 -0.011688 0.091715 -136.882233 -74.714447 154.106491 36.253761 -55.678024 3.100736 27.531776 0.290754 0.014129 2.889749 -0.925266 15.24663 17.636625 -26.322729 52.411182 -19.466661 -14.395597 29.410385 -0.0 -8.774822 -1e-06 15.823947 -18.30459 6.173569 -0.609776 -1.795653 -3.889327 -4.807088 -11.046809 -2.93785 4e-06 -20.976013 -3e-06 -5.019972 -25.033556 -4.031878 4e-06 0.0 -2e-06 -10.634533 -5.686969 -3.565587 10.573275 -17.922947 -3.113899 2e-06 -13.821206 -4e-06 -0.501781 -31.181498 -4.02701 -11.272956 -59.406601 7.318621 -13.982712 -7.150196 -2.875042 13.772727 -8.401489 -3.218239 0.347734 -34.211544 0.771651 -0.963027 -17.733368 2.62102 0.0 -0.0 -1e-06 -17.346416 -20.095213 -4.201782 21.757557 -1.638376 3.866427 0.0 -6.338821 -1e-06 -1.697589 -22.591742 -6.194004 1e-06 -2e-06 -0.0 19.44145 -65.765144 179.45932 30.628706 -48.997192 2.663199 35.513615 -0.066962 0.039638 -1.190171 -3.110488 19.755398 22.182112 -20.375891 49.933319 -16.701815 -16.743528 28.476534 -1e-06 -12.6906 -2e-06 16.031828 -17.975195 2.701791 -0.105918 -1.513856 -4.275883 -5.039043 -5.612873 -2.953556 4e-06 -11.02052 -3e-06 -6.1113 -15.895332 -3.840471 0.0 -1e-06 1e-06 -10.283369 -5.680289 -4.341836 11.028294 -11.302403 -2.372634 -1.384269 -14.23858 -6.320122 -0.625439 -26.924187 -3.827601 -4.495599 -49.744087 -3.708705 -13.708523 -7.363477 -3.72094 18.141146 -14.052738 -3.242673 6e-06 -18.78727 -4e-06 -0.429711 -8.456043 2.555502 -0.0 0.0 1e-06 -15.923536 -20.094486 -5.473586 30.419214 -7.190826 1.735928 2e-06 -8.162927 -3e-06 -1.861903 -22.861471 -6.167944 -1e-06 -1e-06 -1e-06 -178.582275 -7.592024 -10.52043 25.197474 -0.015312 0.168792 -87.752632 5.706348 -7.785843 -7.51671 1.555485 2.118017 -0.999999 -0.0 0.0 -1.744916 -6.830677 -8.490838 29.90637 0.011523 0.076254 -89.63826 0.379272 -7.179015 -7.012331 0.708911 1.652434 -1.000001 -1e-06 -0.0 
0.0 0.0 0.0 0.0 -0.0 0.0 -0.995189 97.354782 6.009232 91.025902 6.70127 89.750221 0.664202 0.265696 -0.20474 -10.396259 -0.655523 0.353107 16.299803 0.034132 -1.668049 19.551235 6.186352 2.545373 -2.490314 -0.548908 0.732851 -33.322716 0.853613 -0.427516 7e-06 0.0 -0.0 0.077965 0.009124 0.096449 -0.017608 0.033923 0.085518 -0.045796 -0.010401 0.110923 -136.987427 -74.768265 154.184723 36.237808 -55.674553 2.945858 27.471828 0.221223 -0.045936 2.878687 -1.203019 15.39602 17.636627 -26.322733 52.41119 -19.46666 -14.395598 29.410385 0.0 -8.774822 -0.0 15.861919 -18.258177 6.118636 -0.609776 -1.795653 -3.889325 -4.807087 -11.046811 -2.937851 4e-06 -20.976015 -1e-06 -5.019972 -25.03356 -4.03188 5e-06 1e-06 0.0 -10.634533 -5.68697 -3.565587 10.573275 -17.922951 -3.113899 2e-06 -13.82121 -4e-06 -0.501779 -31.181505 -4.02701 -11.21716 -59.400688 7.373481 -13.982714 -7.150197 -2.875044 13.772732 -8.401493 -3.218241 0.347734 -34.211555 0.771652 -0.96303 -17.73337 2.621022 -0.0 0.0 -1e-06 -17.34642 -20.095217 -4.20178 21.757563 -1.638374 3.866426 1e-06 -6.338822 -1e-06 -1.697592 -22.591743 -6.194005 1e-06 -6e-06 -0.0 19.198992 -65.511177 179.777542 30.21085 -48.65229 2.606023 35.418018 -0.098108 -0.004396 -1.145908 -3.3575 19.418158 22.182108 -20.375895 49.933319 -16.701811 -16.743528 28.476532 -2e-06 -12.690598 -2e-06 16.038387 -17.999166 2.702718 -0.10592 -1.513855 -4.275881 -5.039042 -5.612873 -2.953557 4e-06 -11.02052 -1e-06 -6.111297 -15.89533 -3.840472 0.0 0.0 -0.0 -10.283368 -5.680287 -4.34184 11.028291 -11.302402 -2.372632 -1.384269 -14.238578 -6.320121 -0.625439 -26.924183 -3.827599 -4.48929 -49.859428 -3.684846 -13.708522 -7.363476 -3.720938 18.141148 -14.052736 -3.242675 4e-06 -18.787266 -1e-06 -0.429713 -8.456043 2.555503 1e-06 -0.0 1e-06 -15.923532 -20.094482 -5.473583 30.419201 -7.190822 1.735928 4e-06 -8.162926 -3e-06 -1.861901 -22.861467 -6.167942 1e-06 -3e-06 0.0 -178.58255 -7.652302 -10.568338 25.342255 -0.01445 0.213624 -87.820396 5.727401 -7.883971 -7.469002 1.563711 2.129077 -0.999999 0.0 -0.0 -1.665666 -6.779716 -8.444973 29.857885 0.011184 0.067754 -89.666969 0.286759 -7.276274 -7.098948 0.684507 1.64733 -1.000002 -0.0 -0.0 
0.0 0.0 0.0 0.0 -0.0 0.0 -0.954128 97.305641 6.149777 91.008072 6.65748 89.729889 0.641993 0.241443 -0.204833 -10.389502 -0.66293 0.352644 16.289873 0.086411 -1.668084 19.476164 6.123629 2.562283 -2.516683 -0.564593 0.656318 -33.294365 0.791969 -0.506508 5e-06 -0.0 -0.0 0.073561 0.006962 0.101949 -0.024482 0.026131 0.094408 -0.047322 -0.007544 0.11254 -137.123596 -74.786072 154.313156 36.25005 -55.597588 2.915169 27.533316 0.185578 -0.082963 2.774292 -1.450928 15.456751 17.636627 -26.322725 52.411179 -19.466661 -14.395594 29.410381 -0.0 -8.774821 -1e-06 15.913736 -18.276482 6.081522 -0.609777 -1.795654 -3.889326 -4.807087 -11.046811 -2.937848 5e-06 -20.976019 -2e-06 -5.01997 -25.033558 -4.031878 5e-06 1e-06 -1e-06 -10.634534 -5.686968 -3.565587 10.573275 -17.922949 -3.113901 4e-06 -13.821209 -3e-06 -0.501777 -31.181498 -4.027011 -11.267759 -59.40691 7.395653 -13.982712 -7.150195 -2.875041 13.772727 -8.401491 -3.218243 0.347736 -34.211552 0.771654 -0.963028 -17.73337 2.62102 -1e-06 -0.0 -1e-06 -17.346413 -20.095213 -4.201782 21.757557 -1.638375 3.866427 1e-06 -6.338822 -1e-06 -1.69759 -22.591742 -6.194002 -1e-06 -4e-06 -0.0 18.912167 -65.254242 -179.892578 29.872683 -48.29797 2.523559 35.281075 -0.103461 -0.047185 -1.121058 -3.461034 19.119473 22.182106 -20.375887 49.933308 -16.701809 -16.743528 28.476524 -3e-06 -12.690597 0.0 16.035835 -17.973984 2.704988 -0.105919 -1.513855 -4.275883 -5.03904 -5.61287 -2.953556 4e-06 -11.02052 -1e-06 -6.111295 -15.89533 -3.840469 0.0 -1e-06 1e-06 -10.283367 -5.680288 -4.341838 11.02829 -11.302402 -2.372634 -1.384268 -14.238577 -6.320122 -0.625437 -26.924183 -3.8276 -4.486217 -49.891281 -3.67112 -13.70852 -7.363475 -3.720938 18.141146 -14.052736 -3.242677 6e-06 -18.787264 -0.0 -0.429712 -8.456042 2.555503 2e-06 -2e-06 2e-06 -15.923532 -20.094479 -5.473586 30.419205 -7.190826 1.735929 3e-06 -8.162921 -2e-06 -1.861898 -22.861464 -6.16794 -0.0 -3e-06 -2e-06 -178.675873 -7.684524 -10.625548 25.656843 -0.021948 0.241071 -88.026047 5.679117 -7.891435 -7.402008 1.560872 2.137016 -0.999999 0.0 -0.0 -1.7575 -6.80734 -8.432064 30.169783 0.016292 0.054193 -89.79628 0.246505 -7.415365 -7.127779 0.671697 1.641798 -1.000001 0.0 -0.0 
0.0 0.0 0.0 0.0 -0.0 0.0 -0.915727 97.23291 6.255399 90.98661 6.609016 89.691727 0.652515 0.200668 -0.191054 -10.386643 -0.664778 0.352685 16.300114 0.132692 -1.641626 19.427029 6.004236 2.576371 -2.540257 -0.579215 0.571005 -33.329983 0.739418 -0.595448 5e-06 0.0 -0.0 0.071492 0.005966 0.098251 -0.035407 0.021491 0.093303 -0.053083 -0.005563 0.105853 -137.281158 -74.748375 154.441528 36.253433 -55.472172 3.050294 27.649889 0.178057 -0.095397 2.691213 -1.538919 15.546033 17.636631 -26.322729 52.411186 -19.466661 -14.395596 29.410389 1e-06 -8.774822 -2e-06 15.919218 -18.266411 6.070187 -0.609778 -1.795655 -3.889326 -4.807091 -11.046811 -2.93785 1e-06 -20.976017 -2e-06 -5.019973 -25.03356 -4.031882 6e-06 0.0 -1e-06 -10.634536 -5.686973 -3.565589 10.573271 -17.922951 -3.113899 2e-06 -13.82121 -3e-06 -0.501776 -31.181505 -4.027017 -11.289259 -59.405441 7.394722 -13.982717 -7.150201 -2.875042 13.772731 -8.401492 -3.218243 0.347731 -34.211555 0.771652 -0.96303 -17.733372 2.621018 -0.0 2e-06 -1e-06 -17.346422 -20.095221 -4.201782 21.757559 -1.638373 3.866428 -0.0 -6.338822 -2e-06 -1.697591 -22.591743 -6.194005 -1e-06 -4e-06 -2e-06 18.622133 -65.052147 -179.561844 29.628828 -48.002846 2.481149 35.13274 -0.043177 -0.06215 -1.080017 -3.461408 18.921404 22.182119 -20.375896 49.933327 -16.701811 -16.743528 28.47653 -2e-06 -12.6906 -2e-06 16.01473 -17.919815 2.720365 -0.105919 -1.513854 -4.275881 -5.039041 -5.612873 -2.953559 3e-06 -11.020524 -1e-06 -6.111299 -15.895334 -3.840472 -2e-06 1e-06 1e-06 -10.283369 -5.680288 -4.34184 11.028293 -11.302406 -2.372632 -1.384269 -14.238583 -6.320122 -0.62544 -26.924194 -3.827598 -4.512168 -49.858803 -3.615472 -13.708522 -7.363477 -3.72094 18.14115 -14.052739 -3.242675 6e-06 -18.78727 -1e-06 -0.429712 -8.456043 2.555505 1e-06 -2e-06 -0.0 -15.923534 -20.094482 -5.473584 30.41921 -7.190823 1.735926 2e-06 -8.162927 -2e-06 -1.861902 -22.861469 -6.167943 1e-06 -4e-06 -1e-06 -178.8517 -7.736045 -10.699043 26.093067 -0.032248 0.254199 -88.290283 5.565459 -7.886043 -7.371916 1.558055 2.139158 -0.999999 0.0 0.0 -1.930094 -6.856262 -8.437309 30.60005 0.021095 0.032425 -89.973549 0.234236 -7.543826 -7.133248 0.662194 1.636707 -1.000002 -0.0 0.0 
